<?xml version="1.0" standalone="no"?>
<!DOCTYPE svg PUBLIC "-//W3C//DTD SVG 20010904//EN"
 "http://www.w3.org/TR/2001/REC-SVG-20010904/DTD/svg10.dtd">
<svg version="1.0" xmlns="http://www.w3.org/2000/svg"
 width="500.000000pt" height="500.000000pt" viewBox="0 0 500.000000 500.000000"
 preserveAspectRatio="xMidYMid meet">
<metadata>
Created by potrace 1.14, written by Peter Selinger 2001-2017
</metadata>
<g transform="translate(0.000000,500.000000) scale(0.100000,-0.100000)"
fill="#000000" stroke="none">
<path d="M1 3798 c1 -662 5 -1158 9 -1103 24 310 106 606 249 900 127 258 251
434 456 644 384 394 843 632 1405 728 83 14 162 18 380 18 287 0 360 -7 569
-56 916 -213 1646 -940 1861 -1854 28 -120 57 -312 63 -415 2 -30 4 484 5
1143 l2 1197 -2500 0 -2500 0 1 -1202z"/>
<path d="M2355 4494 c-16 -2 -70 -9 -120 -15 -653 -79 -1246 -509 -1535 -1111
-311 -648 -259 -1390 139 -1985 309 -462 785 -768 1346 -864 107 -19 532 -19
635 -1 747 132 1345 643 1580 1350 75 227 105 443 97 697 -8 241 -47 438 -127
645 -268 687 -870 1167 -1595 1270 -83 12 -368 21 -420 14z m400 -877 c208
-38 400 -114 550 -218 100 -69 238 -216 299 -317 58 -98 108 -225 133 -342 22
-104 25 -420 5 -515 -105 -489 -454 -803 -995 -895 -111 -19 -163 -20 -753
-20 l-634 0 0 1166 0 1165 653 -4 c552 -3 666 -6 742 -20z"/>
<path d="M2020 2469 l0 -641 278 5 c247 4 285 7 352 26 224 66 372 216 426
431 22 86 22 272 0 362 -41 172 -151 311 -306 386 -128 62 -196 72 -495 72
l-255 0 0 -641z"/>
<path d="M1 1198 l-1 -1198 1158 1 c1003 1 1143 3 1050 14 -578 71 -1103 331
-1503 746 -404 418 -652 968 -695 1534 -4 55 -8 -439 -9 -1097z"/>
<path d="M4990 2318 c0 -70 -32 -287 -56 -388 -176 -731 -650 -1332 -1311
-1664 -282 -141 -540 -217 -863 -255 -46 -5 370 -9 1083 -10 l1157 -1 0 1190
c0 655 -2 1190 -5 1190 -3 0 -5 -28 -5 -62z"/>
</g>
</svg>
